<svg width="64" height="64" viewBox="0 0 64 64" fill="none" xmlns="http://www.w3.org/2000/svg">
  <!-- Background circle with gradient -->
  <defs>
    <linearGradient id="bgGradient" x1="0%" y1="0%" x2="100%" y2="100%">
      <stop offset="0%" style="stop-color:#1e293b;stop-opacity:1" />
      <stop offset="100%" style="stop-color:#334155;stop-opacity:1" />
    </linearGradient>
    <filter id="shadow" x="-20%" y="-20%" width="140%" height="140%">
      <feDropShadow dx="2" dy="2" stdDeviation="3" flood-color="#000000" flood-opacity="0.3"/>
    </filter>
  </defs>
  
  <!-- Background circle -->
  <circle cx="32" cy="32" r="30" fill="url(#bgGradient)" stroke="#475569" stroke-width="2" filter="url(#shadow)"/>
  
  <!-- C letter in orange -->
  <path d="M20 20 C20 15, 25 10, 30 10 C35 10, 40 15, 40 20 C40 25, 35 30, 30 30 C25 30, 20 25, 20 20 Z" 
        fill="#f97316" stroke="#ea580c" stroke-width="1.5"/>
  <path d="M22 18 C22 16, 24 14, 26 14 C28 14, 30 16, 30 18 C30 20, 28 22, 26 22 C24 22, 22 20, 22 18 Z" 
        fill="#f97316"/>
  
  <!-- B letter in sky blue -->
  <path d="M34 12 L34 52 L44 52 C48 52, 52 48, 52 44 C52 40, 48 36, 44 36 L38 36 L38 28 L44 28 C48 28, 52 24, 52 20 C52 16, 48 12, 44 12 L34 12 Z" 
        fill="#0ea5e9" stroke="#0284c7" stroke-width="1.5"/>
  <path d="M36 14 L36 50 L42 50 C46 50, 50 46, 50 42 C50 38, 46 34, 42 34 L38 34 L38 30 L42 30 C46 30, 50 26, 50 22 C50 18, 46 14, 42 14 L36 14 Z" 
        fill="#0ea5e9"/>
  
  <!-- Inner details for B -->
  <rect x="38" y="16" width="8" height="4" fill="#0284c7" rx="1"/>
  <rect x="38" y="24" width="8" height="4" fill="#0284c7" rx="1"/>
  <rect x="38" y="32" width="8" height="4" fill="#0284c7" rx="1"/>
  <rect x="38" y="40" width="8" height="4" fill="#0284c7" rx="1"/>
  <rect x="38" y="48" width="8" height="4" fill="#0284c7" rx="1"/>
</svg>
